<svg width="113" height="76" viewBox="0 0 113 76" fill="none" xmlns="http://www.w3.org/2000/svg">
<path d="M4.15016 64.2035V35.0035H12.4096V57.6544H26.3422V64.2035H4.15016ZM43.3277 64.2035V59.9904L42.7854 58.9475V51.1887C42.7854 49.9372 42.3961 48.9778 41.6174 48.3104C40.8666 47.6151 39.6569 47.2675 37.9883 47.2675C36.9037 47.2675 35.8052 47.4483 34.6929 47.8098C33.5805 48.1435 32.635 48.6163 31.8563 49.2281L29.1866 43.8469C30.4658 43.0127 31.9953 42.373 33.7751 41.9281C35.5828 41.4553 37.3765 41.2189 39.1563 41.2189C42.8271 41.2189 45.6637 42.0671 47.666 43.7635C49.6961 45.4321 50.7111 48.0601 50.7111 51.6475V64.2035H43.3277ZM36.6534 64.579C34.8458 64.579 33.3163 64.273 32.0649 63.6612C30.8134 63.0494 29.854 62.2151 29.1866 61.1584C28.5469 60.1016 28.2271 58.9197 28.2271 57.6127C28.2271 56.2222 28.5748 55.0264 29.27 54.0252C29.993 52.9963 31.0915 52.2176 32.5654 51.6892C34.0393 51.133 35.9443 50.8549 38.2803 50.8549H43.6197V54.9847H39.3649C38.0856 54.9847 37.1818 55.1932 36.6534 55.6104C36.1529 56.0275 35.9026 56.5837 35.9026 57.2789C35.9026 57.9742 36.1668 58.5304 36.6951 58.9475C37.2235 59.3647 37.9466 59.5732 38.8643 59.5732C39.7264 59.5732 40.505 59.3647 41.2003 58.9475C41.9233 58.5026 42.4517 57.8351 42.7854 56.9452L43.87 59.8652C43.4529 61.4226 42.6325 62.6045 41.4089 63.4109C40.213 64.1896 38.6279 64.579 36.6534 64.579ZM70.4391 41.2189C72.1911 41.2189 73.7762 41.5805 75.1945 42.3035C76.6128 42.9988 77.7252 44.0833 78.5317 45.5572C79.3659 47.0311 79.7831 48.9361 79.7831 51.2721V64.2035H71.8574V52.5652C71.8574 50.9523 71.5237 49.7843 70.8562 49.0612C70.2166 48.3104 69.3128 47.9349 68.1448 47.9349C67.3105 47.9349 66.5457 48.1296 65.8505 48.5189C65.1553 48.8805 64.613 49.4506 64.2236 50.2292C63.8343 51.0079 63.6396 52.0229 63.6396 53.2744V64.2035H55.7139V41.5944H63.2642V48.0184L61.8042 46.1412C62.6663 44.5005 63.8482 43.2768 65.3499 42.4704C66.8516 41.6361 68.548 41.2189 70.4391 41.2189ZM96.0986 72.6715C93.9294 72.6715 91.8576 72.4212 89.8832 71.9207C87.9365 71.4201 86.2679 70.6831 84.8774 69.7098L87.7557 64.1618C88.7013 64.9127 89.8693 65.4967 91.2597 65.9138C92.678 66.3588 94.0546 66.5812 95.3894 66.5812C97.5308 66.5812 99.0742 66.1085 100.02 65.163C100.965 64.2452 101.438 62.8965 101.438 61.1167V58.4469L101.855 52.1064L101.813 45.7241V41.5944H109.364V60.0738C109.364 64.3565 108.21 67.5268 105.901 69.5847C103.593 71.6426 100.326 72.6715 96.0986 72.6715ZM94.722 63.0355C92.7197 63.0355 90.8704 62.5906 89.174 61.7007C87.5054 60.7829 86.1567 59.5176 85.1277 57.9047C84.1266 56.2639 83.626 54.3311 83.626 52.1064C83.626 49.8816 84.1266 47.9628 85.1277 46.3498C86.1567 44.709 87.5054 43.4437 89.174 42.5538C90.8704 41.6639 92.7197 41.2189 94.722 41.2189C96.6409 41.2189 98.2816 41.6083 99.6443 42.3869C101.007 43.1378 102.036 44.3197 102.731 45.9327C103.454 47.5456 103.816 49.6035 103.816 52.1064C103.816 54.6092 103.454 56.6671 102.731 58.2801C102.036 59.893 101.007 61.0889 99.6443 61.8675C98.2816 62.6462 96.6409 63.0355 94.722 63.0355ZM96.5992 56.7367C97.5447 56.7367 98.379 56.542 99.102 56.1527C99.8529 55.7633 100.437 55.221 100.854 54.5258C101.299 53.8306 101.521 53.0241 101.521 52.1064C101.521 51.1887 101.299 50.3822 100.854 49.6869C100.437 48.9917 99.8529 48.4633 99.102 48.1018C98.379 47.7125 97.5447 47.5178 96.5992 47.5178C95.6536 47.5178 94.8054 47.7125 94.0546 48.1018C93.3037 48.4633 92.7058 48.9917 92.2609 49.6869C91.8437 50.3822 91.6352 51.1887 91.6352 52.1064C91.6352 53.0241 91.8437 53.8306 92.2609 54.5258C92.7058 55.221 93.3037 55.7633 94.0546 56.1527C94.8054 56.542 95.6536 56.7367 96.5992 56.7367Z" fill="#4255FF"/>
<path d="M32.8921 42.2416C30.9175 43.1952 28.9239 43.7672 26.9114 43.9575C24.9115 44.1116 23.0014 43.8917 21.1813 43.2976C19.3611 42.7035 17.7091 41.7727 16.2251 40.5052C14.7655 39.2259 13.5707 37.6234 12.6406 35.6975C11.7106 33.7717 11.1983 31.8395 11.1038 29.9009C11.0338 27.9506 11.3319 26.0779 11.9983 24.283C12.6891 22.4763 13.7224 20.8499 15.0984 19.4037C16.4626 17.9332 18.1442 16.7152 20.1431 15.7498C22.3615 14.6785 24.5488 14.1031 26.7051 14.0238C28.874 13.9083 30.927 14.2997 32.8641 15.1981L30.7565 20.5451C29.3962 19.9695 28.062 19.6969 26.7539 19.7273C25.4341 19.7334 24.1403 20.0425 22.8727 20.6547C21.6782 21.2316 20.6754 21.9564 19.8642 22.8292C19.0531 23.7019 18.4585 24.6805 18.0804 25.765C17.7022 26.8496 17.5473 27.9916 17.6156 29.1913C17.7082 30.3791 18.0489 31.5825 18.6375 32.8014C19.2262 34.0202 19.9569 35.0352 20.8296 35.8464C21.7267 36.6457 22.7175 37.2344 23.8021 37.6126C24.8866 37.9907 26.0228 38.1335 27.2106 38.0408C28.3985 37.9482 29.5896 37.6134 30.7842 37.0365C32.0518 36.4243 33.1042 35.6154 33.9413 34.6099C34.7667 33.5799 35.371 32.3411 35.7541 30.8934L41.2523 32.5672C40.7516 34.6429 39.7876 36.5064 38.3604 38.1577C36.9576 39.7972 35.1348 41.1585 32.8921 42.2416Z" fill="#4255FF"/>
<path d="M30.0768 35.3048C29.0737 35.7892 28.061 36.0797 27.0387 36.1764C26.0228 36.2547 25.0526 36.1429 24.128 35.8412C23.2034 35.5394 22.3642 35.0666 21.6104 34.4227C20.8689 33.7729 20.262 32.9588 19.7895 31.9805C19.3171 31.0022 19.0569 30.0207 19.0089 29.036C18.9733 28.0453 19.1248 27.094 19.4633 26.1822C19.8141 25.2645 20.3391 24.4383 21.038 23.7037C21.731 22.9567 22.5852 22.338 23.6006 21.8476C24.7275 21.3034 25.8386 21.0111 26.9339 20.9708C28.0357 20.9121 29.0786 21.111 30.0625 21.5673L28.9919 24.2835C28.3009 23.9911 27.6232 23.8526 26.9587 23.8681C26.2883 23.8711 25.6311 24.0282 24.9872 24.3392C24.3804 24.6322 23.871 25.0004 23.459 25.4437C23.0469 25.887 22.7449 26.3842 22.5528 26.9351C22.3607 27.486 22.282 28.0661 22.3167 28.6755C22.3637 29.2789 22.5368 29.8902 22.8358 30.5093C23.1348 31.1285 23.506 31.6441 23.9493 32.0561C24.405 32.4622 24.9084 32.7612 25.4593 32.9533C26.0102 33.1454 26.5873 33.2179 27.1907 33.1708C27.7941 33.1238 28.3992 32.9537 29.006 32.6607C29.6499 32.3497 30.1845 31.9388 30.6098 31.428C31.029 30.9048 31.336 30.2755 31.5306 29.5402L34.3236 30.3904C34.0692 31.4448 33.5795 32.3914 32.8545 33.2302C32.1419 34.063 31.216 34.7546 30.0768 35.3048Z" fill="#8E9AFE"/>
<path d="M28.4888 31.5699C28.0333 31.7899 27.5734 31.9218 27.1091 31.9657C26.6478 32.0013 26.2072 31.9505 25.7873 31.8135C25.3674 31.6765 24.9863 31.4617 24.644 31.1693C24.3073 30.8742 24.0317 30.5046 23.8171 30.0603C23.6026 29.616 23.4844 29.1703 23.4626 28.7231C23.4465 28.2732 23.5152 27.8412 23.669 27.4272C23.8283 27.0104 24.0667 26.6352 24.3841 26.3016C24.6988 25.9624 25.0867 25.6814 25.5478 25.4587C26.0596 25.2116 26.5641 25.0789 27.0616 25.0606C27.5619 25.0339 28.0355 25.1242 28.4823 25.3314L27.9961 26.5649C27.6823 26.4321 27.3746 26.3692 27.0728 26.3763C26.7683 26.3777 26.4699 26.449 26.1775 26.5902C25.9019 26.7233 25.6706 26.8905 25.4835 27.0918C25.2964 27.2931 25.1592 27.5189 25.072 27.7691C24.9847 28.0192 24.949 28.2827 24.9648 28.5594C24.9861 28.8334 25.0647 29.111 25.2005 29.3922C25.3363 29.6734 25.5049 29.9075 25.7062 30.0946C25.9131 30.279 26.1417 30.4148 26.3919 30.5021C26.642 30.5893 26.9041 30.6222 27.1782 30.6009C27.4522 30.5795 27.727 30.5023 28.0025 30.3692C28.2949 30.228 28.5377 30.0414 28.7308 29.8094C28.9212 29.5718 29.0606 29.286 29.149 28.9521L30.4173 29.3382C30.3018 29.817 30.0795 30.2469 29.7502 30.6278C29.4266 31.006 29.0061 31.3201 28.4888 31.5699Z" fill="#B7BEFF"/>
<path d="M50.1441 44.0776L50.9236 41.0337L50.8044 40.2927L52.2 34.8427C52.4474 33.8764 52.3409 33.046 51.8803 32.3514C51.4391 31.6618 50.6097 31.1612 49.3922 30.8494C48.5611 30.6366 47.7051 30.5615 46.8241 30.6243C45.9674 30.6726 45.2019 30.8473 44.5276 31.1483L43.7134 27.5727C44.7171 27.1913 45.8602 26.9898 47.1426 26.9681C48.4249 26.9464 49.6845 27.0939 50.9214 27.4106C53.2985 28.0193 55.0007 29.0524 56.0278 30.5098C57.055 31.9672 57.2642 33.8845 56.6555 36.2617L54.3766 45.1614L50.1441 44.0776ZM45.3305 43.0921C44.1129 42.7803 43.1213 42.3102 42.3555 41.6816C41.5947 41.0338 41.074 40.2929 40.7932 39.4591C40.5125 38.6252 40.486 37.7638 40.7136 36.8748C40.9512 35.9471 41.3813 35.1923 42.0039 34.6104C42.6459 34.0334 43.5092 33.6779 44.5938 33.5438C45.6834 33.3903 47.0205 33.5165 48.6053 33.9223L52.7508 34.9838L52.0753 37.6218L48.4226 36.6865C47.3597 36.4143 46.5807 36.4002 46.0858 36.6441C45.6102 36.893 45.3056 37.2784 45.172 37.8002C45.0235 38.38 45.127 38.9007 45.4824 39.3624C45.8621 39.8097 46.4481 40.1348 47.2405 40.3377C47.9942 40.5307 48.7152 40.53 49.4034 40.3356C50.0965 40.1218 50.6675 39.7016 51.1162 39.0752L51.2775 41.3406C50.6916 42.2614 49.897 42.8714 48.8937 43.1705C47.8904 43.4696 46.7027 43.4435 45.3305 43.0921Z" fill="#4255FF"/>
<path d="M65.215 42.5683L55.3568 29.8401L58.8819 27.1098L61.6671 30.7059L60.364 30.0497C60.0463 28.8575 60.1282 27.709 60.6099 26.6042C61.0793 25.4836 61.9134 24.459 63.1121 23.5306L65.7508 26.9375C65.5808 27.0438 65.4328 27.1459 65.3066 27.2436C65.1682 27.3256 65.028 27.4215 64.8861 27.5315C63.8766 28.3133 63.2825 29.2403 63.1036 30.3125C62.9282 31.3567 63.3108 32.4861 64.2515 33.7006L68.9057 39.7098L65.215 42.5683Z" fill="#4255FF"/>
<path d="M75.7823 42.7299C74.2145 42.1577 72.9294 41.2913 71.927 40.1306C70.9321 38.9494 70.2967 37.5837 70.0209 36.0337C69.7656 34.4911 69.9542 32.8535 70.5867 31.1206C71.2266 29.3672 72.141 27.9827 73.3298 26.9672C74.5392 25.9592 75.9011 25.3342 77.4155 25.092C78.9298 24.8499 80.4709 25.0149 82.0387 25.5871C83.4415 26.0991 84.556 26.8565 85.3822 27.8593C86.2084 28.8622 86.6807 30.0982 86.7991 31.5674C86.9174 33.0365 86.619 34.751 85.9037 36.7108C85.196 38.6499 84.3303 40.1573 83.3065 41.2331C82.2903 42.2881 81.1432 42.9331 79.8652 43.168C78.6079 43.4105 77.2469 43.2644 75.7823 42.7299ZM78.0633 39.074C78.8472 39.3601 79.6266 39.4342 80.4017 39.2963C81.1767 39.1583 81.8741 38.8167 82.4938 38.2715C83.1418 37.7132 83.6389 36.9595 83.9852 36.0106C84.3391 35.041 84.4443 34.1443 84.3008 33.3205C84.1779 32.5043 83.8645 31.7938 83.3605 31.189C82.8565 30.5843 82.2125 30.1389 81.4286 29.8528C80.6241 29.5592 79.8343 29.4814 79.0593 29.6193C78.2843 29.7572 77.5766 30.095 76.9362 30.6328C76.3164 31.178 75.8296 31.9354 75.4757 32.905C75.1294 33.8539 75.0139 34.7468 75.1293 35.5837C75.2728 36.4075 75.5965 37.1218 76.1005 37.7265C76.6045 38.3312 77.2587 38.7804 78.0633 39.074ZM81.0711 44.3796L82.3134 40.9758L84.2131 36.0587L85.6993 31.0257L89.2341 21.3404L94.0613 23.1021L85.6817 46.0623L81.0711 44.3796Z" fill="#4255FF"/>
<path d="M100.94 40.1855C99.818 40.6151 98.687 40.8991 97.5469 41.0375C96.4167 41.1534 95.4731 41.1233 94.7158 40.9472L94.9379 37.7301C95.6827 37.8737 96.5082 37.9117 97.4146 37.8443C98.3309 37.7544 99.1874 37.5568 99.9841 37.2517C100.862 36.9155 101.439 36.5732 101.716 36.2249C102.009 35.8703 102.084 35.506 101.941 35.1321C101.822 34.8232 101.589 34.6516 101.24 34.6174C100.902 34.5606 100.481 34.5819 99.9784 34.6812C99.4757 34.7805 98.9243 34.8984 98.3242 35.0351C97.7402 35.1655 97.1389 35.2746 96.52 35.3625C95.8949 35.4341 95.2937 35.422 94.7164 35.3261C94.139 35.2303 93.6137 35.0027 93.1405 34.6433C92.6836 34.2776 92.3119 33.7209 92.0254 32.973C91.7079 32.1438 91.6634 31.3219 91.8921 30.5073C92.137 29.6864 92.6462 28.9228 93.4197 28.2164C94.187 27.4938 95.2047 26.8896 96.4728 26.4039C97.367 26.0615 98.3149 25.8103 99.3163 25.6505C100.318 25.4907 101.199 25.4795 101.96 25.6168L101.729 28.8095C100.951 28.6784 100.213 28.6723 99.5124 28.7913C98.8223 28.8878 98.1765 29.0513 97.5749 29.2817C96.7295 29.6055 96.1552 29.9559 95.8522 30.3329C95.5492 30.71 95.4662 31.0774 95.6032 31.435C95.7277 31.7602 95.9593 31.9512 96.2979 32.0079C96.6529 32.0584 97.0847 32.0421 97.5936 31.9591C98.1024 31.8761 98.6488 31.7694 99.2327 31.639C99.8267 31.4861 100.436 31.3738 101.061 31.3022C101.686 31.2306 102.279 31.2458 102.841 31.3479C103.412 31.4275 103.934 31.6469 104.407 32.0064C104.874 32.3495 105.251 32.895 105.537 33.6429C105.848 34.4558 105.882 35.2727 105.637 36.0936C105.386 36.8982 104.865 37.6568 104.075 38.3694C103.302 39.0758 102.257 39.6812 100.94 40.1855Z" fill="#4255FF"/>
</svg>
