<svg width="70" height="116" viewBox="0 0 70 116" fill="none" xmlns="http://www.w3.org/2000/svg">
<path d="M39.6058 93.137C34.4893 93.137 29.7202 92.3158 25.2985 90.6735C20.9399 88.968 17.1499 86.5676 13.9284 83.4724C10.7068 80.3772 8.18015 76.7451 6.3483 72.5761C4.57962 68.4071 3.69528 63.8274 3.69528 58.8372C3.69528 53.847 4.57962 49.2674 6.3483 45.0984C8.18015 40.9293 10.7068 37.2972 13.9284 34.202C17.2131 31.1068 21.0347 28.7381 25.3932 27.0957C29.7517 25.3902 34.5209 24.5375 39.7006 24.5375C45.4488 24.5375 50.6285 25.5481 55.2397 27.5695C59.9141 29.5277 63.8304 32.4334 66.9888 36.2866L57.1347 45.3826C54.8607 42.7928 52.334 40.8662 49.5546 39.6028C46.7753 38.2763 43.7433 37.6131 40.4586 37.6131C37.3634 37.6131 34.5209 38.1184 31.931 39.1291C29.3412 40.1397 27.0987 41.5926 25.2037 43.4876C23.3087 45.3826 21.8243 47.6251 20.7504 50.2149C19.7397 52.8048 19.2344 55.6789 19.2344 58.8372C19.2344 61.9956 19.7397 64.8697 20.7504 67.4596C21.8243 70.0494 23.3087 72.2918 25.2037 74.1869C27.0987 76.0819 29.3412 77.5347 31.931 78.5454C34.5209 79.5561 37.3634 80.0614 40.4586 80.0614C43.7433 80.0614 46.7753 79.4297 49.5546 78.1664C52.334 76.8399 54.8607 74.8501 57.1347 72.1971L66.9888 81.2932C63.8304 85.1464 59.9141 88.0836 55.2397 90.105C50.6285 92.1263 45.4172 93.137 39.6058 93.137Z" fill="#4255FF"/>
<path d="M40.7283 77.3796C38.1292 77.3796 35.7066 76.9625 33.4605 76.1282C31.2465 75.2619 29.3213 74.0426 27.6848 72.4703C26.0484 70.898 24.7649 69.053 23.8343 66.9352C22.9359 64.8175 22.4867 62.4911 22.4867 59.9562C22.4867 57.4213 22.9359 55.095 23.8343 52.9772C24.7649 50.8595 26.0484 49.0145 27.6848 47.4422C29.3534 45.8699 31.2946 44.6666 33.5087 43.8324C35.7227 42.966 38.1453 42.5328 40.7764 42.5328C43.6964 42.5328 46.3275 43.0462 48.6699 44.073C51.0444 45.0677 53.0338 46.5437 54.6381 48.5011L49.6325 53.1216C48.4774 51.806 47.1939 50.8274 45.7821 50.1856C44.3702 49.5118 42.83 49.1749 41.1615 49.1749C39.5892 49.1749 38.1453 49.4316 36.8297 49.945C35.5141 50.4584 34.375 51.1964 33.4124 52.159C32.4498 53.1216 31.6957 54.2607 31.1502 55.5763C30.6368 56.8919 30.3801 58.3519 30.3801 59.9562C30.3801 61.5606 30.6368 63.0206 31.1502 64.3361C31.6957 65.6517 32.4498 66.7908 33.4124 67.7534C34.375 68.7161 35.5141 69.4541 36.8297 69.9675C38.1453 70.4809 39.5892 70.7376 41.1615 70.7376C42.83 70.7376 44.3702 70.4167 45.7821 69.7749C47.1939 69.1011 48.4774 68.0904 49.6325 66.7427L54.6381 71.3633C53.0338 73.3206 51.0444 74.8126 48.6699 75.8394C46.3275 76.8662 43.6803 77.3796 40.7283 77.3796Z" fill="#8E9AFE"/>
<path d="M41.1813 67.5892C40.001 67.5892 38.9008 67.3998 37.8808 67.0209C36.8754 66.6275 36.0011 66.0738 35.258 65.3598C34.5148 64.6458 33.9319 63.8079 33.5094 62.8462C33.1014 61.8845 32.8974 60.828 32.8974 59.6769C32.8974 58.5257 33.1014 57.4693 33.5094 56.5075C33.9319 55.5458 34.5148 54.708 35.258 53.994C36.0157 53.2799 36.8973 52.7335 37.9027 52.3546C38.9081 51.9612 40.0083 51.7645 41.2032 51.7645C42.5292 51.7645 43.724 51.9976 44.7878 52.4639C45.8661 52.9157 46.7695 53.5859 47.4981 54.4748L45.2249 56.5731C44.7003 55.9757 44.1175 55.5313 43.4763 55.2398C42.8352 54.9338 42.1357 54.7808 41.378 54.7808C40.664 54.7808 40.0083 54.8974 39.4108 55.1305C38.8134 55.3637 38.2961 55.6988 37.859 56.136C37.4218 56.5731 37.0794 57.0904 36.8317 57.6878C36.5985 58.2853 36.482 58.9483 36.482 59.6769C36.482 60.4054 36.5985 61.0684 36.8317 61.6659C37.0794 62.2633 37.4218 62.7806 37.859 63.2178C38.2961 63.6549 38.8134 63.99 39.4108 64.2232C40.0083 64.4563 40.664 64.5729 41.378 64.5729C42.1357 64.5729 42.8352 64.4272 43.4763 64.1358C44.1175 63.8298 44.7003 63.3708 45.2249 62.7587L47.4981 64.8571C46.7695 65.7459 45.8661 66.4235 44.7878 66.8898C43.724 67.3561 42.5219 67.5892 41.1813 67.5892Z" fill="#B7BEFF"/>
</svg>
