<svg width="113" height="76" viewBox="0 0 113 76" fill="none" xmlns="http://www.w3.org/2000/svg">
<path d="M4.15016 64.085V34.885H12.4096V57.5358H26.3422V64.085H4.15016ZM43.3277 64.085V59.8718L42.7854 58.829V51.0701C42.7854 49.8187 42.3961 48.8593 41.6174 48.1918C40.8666 47.4966 39.6569 47.149 37.9883 47.149C36.9037 47.149 35.8052 47.3297 34.6929 47.6913C33.5805 48.025 32.635 48.4977 31.8563 49.1096L29.1866 43.7284C30.4658 42.8941 31.9953 42.2545 33.7751 41.8096C35.5828 41.3368 37.3765 41.1004 39.1563 41.1004C42.8271 41.1004 45.6637 41.9486 47.666 43.645C49.6961 45.3136 50.7111 47.9416 50.7111 51.529V64.085H43.3277ZM36.6534 64.4604C34.8458 64.4604 33.3163 64.1545 32.0649 63.5427C30.8134 62.9309 29.854 62.0966 29.1866 61.0398C28.5469 59.9831 28.2271 58.8012 28.2271 57.4941C28.2271 56.1037 28.5748 54.9078 29.27 53.9067C29.993 52.8777 31.0915 52.0991 32.5654 51.5707C34.0393 51.0145 35.9443 50.7364 38.2803 50.7364H43.6197V54.8661H39.3649C38.0856 54.8661 37.1818 55.0747 36.6534 55.4918C36.1529 55.909 35.9026 56.4652 35.9026 57.1604C35.9026 57.8557 36.1668 58.4118 36.6951 58.829C37.2235 59.2461 37.9466 59.4547 38.8643 59.4547C39.7264 59.4547 40.505 59.2461 41.2003 58.829C41.9233 58.384 42.4517 57.7166 42.7854 56.8267L43.87 59.7467C43.4529 61.304 42.6325 62.4859 41.4089 63.2924C40.213 64.0711 38.6279 64.4604 36.6534 64.4604ZM70.4391 41.1004C72.1911 41.1004 73.7762 41.4619 75.1945 42.185C76.6128 42.8802 77.7252 43.9648 78.5317 45.4387C79.3659 46.9126 79.7831 48.8176 79.7831 51.1536V64.085H71.8574V52.4467C71.8574 50.8337 71.5237 49.6657 70.8562 48.9427C70.2166 48.1918 69.3128 47.8164 68.1448 47.8164C67.3105 47.8164 66.5457 48.0111 65.8505 48.4004C65.1553 48.7619 64.613 49.332 64.2236 50.1107C63.8343 50.8894 63.6396 51.9044 63.6396 53.1558V64.085H55.7139V41.4758H63.2642V47.8998L61.8042 46.0227C62.6663 44.3819 63.8482 43.1583 65.3499 42.3518C66.8516 41.5176 68.548 41.1004 70.4391 41.1004ZM96.0986 72.553C93.9294 72.553 91.8576 72.3027 89.8832 71.8021C87.9365 71.3016 86.2679 70.5646 84.8774 69.5913L87.7557 64.0433C88.7013 64.7941 89.8693 65.3781 91.2597 65.7953C92.678 66.2402 94.0546 66.4627 95.3894 66.4627C97.5308 66.4627 99.0742 65.9899 100.02 65.0444C100.965 64.1267 101.438 62.7779 101.438 60.9981V58.3284L101.855 51.9878L101.813 45.6056V41.4758H109.364V59.9553C109.364 64.2379 108.21 67.4082 105.901 69.4661C103.593 71.524 100.326 72.553 96.0986 72.553ZM94.722 62.917C92.7197 62.917 90.8704 62.472 89.174 61.5821C87.5054 60.6644 86.1567 59.3991 85.1277 57.7861C84.1266 56.1454 83.626 54.2126 83.626 51.9878C83.626 49.7631 84.1266 47.8442 85.1277 46.2313C86.1567 44.5905 87.5054 43.3252 89.174 42.4353C90.8704 41.5454 92.7197 41.1004 94.722 41.1004C96.6409 41.1004 98.2816 41.4897 99.6443 42.2684C101.007 43.0193 102.036 44.2012 102.731 45.8141C103.454 47.4271 103.816 49.485 103.816 51.9878C103.816 54.4907 103.454 56.5486 102.731 58.1616C102.036 59.7745 101.007 60.9703 99.6443 61.749C98.2816 62.5277 96.6409 62.917 94.722 62.917ZM96.5992 56.6181C97.5447 56.6181 98.379 56.4235 99.102 56.0341C99.8529 55.6448 100.437 55.1025 100.854 54.4073C101.299 53.712 101.521 52.9056 101.521 51.9878C101.521 51.0701 101.299 50.2637 100.854 49.5684C100.437 48.8732 99.8529 48.3448 99.102 47.9833C98.379 47.5939 97.5447 47.3993 96.5992 47.3993C95.6536 47.3993 94.8054 47.5939 94.0546 47.9833C93.3037 48.3448 92.7058 48.8732 92.2609 49.5684C91.8437 50.2637 91.6352 51.0701 91.6352 51.9878C91.6352 52.9056 91.8437 53.712 92.2609 54.4073C92.7058 55.1025 93.3037 55.6448 94.0546 56.0341C94.8054 56.4235 95.6536 56.6181 96.5992 56.6181Z" fill="white"/>
<path d="M32.8921 42.1231C30.9175 43.0767 28.9239 43.6487 26.9114 43.839C24.9115 43.9931 23.0014 43.7731 21.1813 43.1791C19.3611 42.585 17.7091 41.6542 16.2251 40.3867C14.7655 39.1074 13.5707 37.5048 12.6406 35.579C11.7106 33.6532 11.1983 31.721 11.1038 29.7824C11.0338 27.8321 11.3319 25.9594 11.9983 24.1645C12.6891 22.3578 13.7224 20.7314 15.0984 19.2852C16.4626 17.8147 18.1442 16.5967 20.1431 15.6313C22.3615 14.56 24.5488 13.9846 26.7051 13.9053C28.874 13.7898 30.927 14.1812 32.8641 15.0796L30.7565 20.4266C29.3962 19.8509 28.062 19.5783 26.7539 19.6088C25.4341 19.6149 24.1403 19.924 22.8727 20.5362C21.6782 21.1131 20.6754 21.8379 19.8642 22.7106C19.0531 23.5834 18.4585 24.562 18.0804 25.6465C17.7022 26.731 17.5473 27.8731 17.6156 29.0727C17.7082 30.2606 18.0489 31.464 18.6375 32.6828C19.2262 33.9017 19.9569 34.9167 20.8296 35.7278C21.7267 36.5272 22.7175 37.1159 23.8021 37.4941C24.8866 37.8722 26.0228 38.0149 27.2106 37.9223C28.3985 37.8296 29.5896 37.4949 30.7842 36.918C32.0518 36.3058 33.1042 35.4969 33.9413 34.4913C34.7667 33.4614 35.371 32.2226 35.7541 30.7749L41.2523 32.4487C40.7516 34.5244 39.7876 36.3879 38.3604 38.0391C36.9576 39.6787 35.1348 41.04 32.8921 42.1231Z" fill="white"/>
<path d="M30.0768 35.1862C29.0737 35.6706 28.061 35.9612 27.0387 36.0578C26.0228 36.1361 25.0526 36.0244 24.128 35.7226C23.2034 35.4208 22.3642 34.948 21.6104 34.3042C20.8689 33.6543 20.262 32.8403 19.7895 31.862C19.3171 30.8837 19.0569 29.9022 19.0089 28.9175C18.9733 27.9267 19.1248 26.9755 19.4633 26.0637C19.8141 25.146 20.3391 24.3198 21.038 23.5852C21.731 22.8382 22.5852 22.2195 23.6006 21.7291C24.7275 21.1849 25.8386 20.8926 26.9339 20.8523C28.0357 20.7936 29.0786 20.9925 30.0625 21.4488L28.9919 24.1649C28.3009 23.8725 27.6232 23.7341 26.9587 23.7495C26.2883 23.7526 25.6311 23.9097 24.9872 24.2206C24.3804 24.5137 23.871 24.8819 23.459 25.3252C23.0469 25.7685 22.7449 26.2656 22.5528 26.8165C22.3607 27.3674 22.282 27.9476 22.3167 28.557C22.3637 29.1604 22.5368 29.7717 22.8358 30.3908C23.1348 31.01 23.506 31.5256 23.9493 31.9376C24.405 32.3436 24.9084 32.6427 25.4593 32.8348C26.0102 33.0269 26.5873 33.0994 27.1907 33.0523C27.7941 33.0053 28.3992 32.8352 29.006 32.5422C29.6499 32.2312 30.1845 31.8203 30.6098 31.3095C31.029 30.7863 31.336 30.157 31.5306 29.4216L34.3236 30.2719C34.0692 31.3263 33.5795 32.2729 32.8545 33.1117C32.1419 33.9445 31.216 34.636 30.0768 35.1862Z" fill="#E5C5FF"/>
<path d="M28.4888 31.4514C28.0333 31.6714 27.5734 31.8033 27.1091 31.8472C26.6478 31.8828 26.2072 31.832 25.7873 31.695C25.3674 31.5579 24.9863 31.3432 24.644 31.0508C24.3073 30.7557 24.0317 30.386 23.8171 29.9418C23.6026 29.4975 23.4844 29.0518 23.4626 28.6046C23.4465 28.1547 23.5152 27.7227 23.669 27.3086C23.8283 26.8919 24.0667 26.5167 24.3841 26.1831C24.6988 25.8438 25.0867 25.5629 25.5478 25.3402C26.0596 25.093 26.5641 24.9603 27.0616 24.942C27.5619 24.9154 28.0355 25.0057 28.4823 25.2129L27.9961 26.4464C27.6823 26.3136 27.3746 26.2507 27.0728 26.2577C26.7683 26.2591 26.4699 26.3304 26.1775 26.4717C25.9019 26.6047 25.6706 26.7719 25.4835 26.9733C25.2964 27.1746 25.1592 27.4003 25.072 27.6505C24.9847 27.9007 24.949 28.1642 24.9648 28.4409C24.9861 28.7149 25.0647 28.9925 25.2005 29.2737C25.3363 29.5549 25.5049 29.789 25.7062 29.9761C25.9131 30.1605 26.1417 30.2963 26.3919 30.3835C26.642 30.4708 26.9041 30.5037 27.1782 30.4823C27.4522 30.461 27.727 30.3837 28.0025 30.2507C28.2949 30.1094 28.5377 29.9228 28.7308 29.6909C28.9212 29.4533 29.0606 29.1675 29.149 28.8335L30.4173 29.2197C30.3018 29.6985 30.0795 30.1284 29.7502 30.5093C29.4266 30.8875 29.0061 31.2015 28.4888 31.4514Z" fill="#E7CAFF"/>
<path d="M50.1441 43.9591L50.9236 40.9152L50.8044 40.1742L52.2 34.7242C52.4474 33.7579 52.3408 32.9275 51.8803 32.2329C51.4391 31.5433 50.6097 31.0427 49.3921 30.7309C48.5611 30.5181 47.7051 30.443 46.8241 30.5058C45.9674 30.5541 45.2019 30.7288 44.5276 31.0298L43.7133 27.4542C44.7171 27.0729 45.8602 26.8713 47.1425 26.8496C48.4249 26.8279 49.6845 26.9754 50.9214 27.2921C53.2985 27.9008 55.0007 28.9339 56.0278 30.3913C57.055 31.8487 57.2642 33.766 56.6555 36.1432L54.3766 45.0429L50.1441 43.9591ZM45.3305 42.9736C44.1129 42.6618 43.1213 42.1917 42.3555 41.5631C41.5947 40.9153 41.0739 40.1744 40.7932 39.3406C40.5125 38.5067 40.4859 37.6453 40.7136 36.7563C40.9511 35.8286 41.3812 35.0738 42.0039 34.4919C42.6459 33.9149 43.5092 33.5594 44.5938 33.4253C45.6834 33.2718 47.0205 33.398 48.6053 33.8038L52.7508 34.8653L52.0752 37.5033L48.4226 36.568C47.3596 36.2958 46.5807 36.2817 46.0858 36.5256C45.6102 36.7745 45.3056 37.1599 45.1719 37.6817C45.0235 38.2615 45.127 38.7822 45.4824 39.2439C45.8621 39.6912 46.4481 40.0163 47.2405 40.2192C47.9942 40.4122 48.7152 40.4115 49.4034 40.2171C50.0965 40.0033 50.6674 39.5831 51.1162 38.9567L51.2774 41.2221C50.6916 42.1429 49.897 42.7529 48.8937 43.052C47.8904 43.3511 46.7026 43.325 45.3305 42.9736Z" fill="white"/>
<path d="M65.215 42.4498L55.3568 29.7216L58.8819 26.9913L61.6671 30.5874L60.364 29.9312C60.0463 28.739 60.1282 27.5905 60.6099 26.4857C61.0793 25.3651 61.9134 24.3405 63.1121 23.4121L65.7508 26.819C65.5808 26.9253 65.4328 27.0274 65.3066 27.1251C65.1682 27.2071 65.028 27.303 64.8861 27.413C63.8766 28.1948 63.2825 29.1218 63.1036 30.194C62.9282 31.2382 63.3108 32.3676 64.2515 33.5821L68.9057 39.5913L65.215 42.4498Z" fill="white"/>
<path d="M75.7823 42.6114C74.2145 42.0392 72.9294 41.1728 71.927 40.0121C70.9321 38.8309 70.2967 37.4652 70.0209 35.9152C69.7656 34.3726 69.9542 32.735 70.5867 31.0021C71.2266 29.2487 72.141 27.8642 73.3298 26.8487C74.5392 25.8407 75.9011 25.2157 77.4155 24.9735C78.9298 24.7314 80.4709 24.8964 82.0387 25.4686C83.4415 25.9806 84.556 26.738 85.3822 27.7408C86.2084 28.7437 86.6807 29.9797 86.7991 31.4489C86.9174 32.918 86.619 34.6325 85.9037 36.5923C85.196 38.5314 84.3303 40.0388 83.3065 41.1146C82.2903 42.1696 81.1432 42.8146 79.8652 43.0495C78.6079 43.292 77.2469 43.1459 75.7823 42.6114ZM78.0633 38.9555C78.8472 39.2416 79.6266 39.3157 80.4017 39.1778C81.1767 39.0398 81.8741 38.6982 82.4938 38.153C83.1418 37.5947 83.6389 36.841 83.9852 35.8921C84.3391 34.9225 84.4443 34.0258 84.3008 33.202C84.1779 32.3858 83.8645 31.6753 83.3605 31.0705C82.8565 30.4658 82.2125 30.0204 81.4286 29.7343C80.6241 29.4407 79.8343 29.3629 79.0593 29.5008C78.2843 29.6387 77.5766 29.9765 76.9362 30.5143C76.3164 31.0595 75.8296 31.8169 75.4757 32.7865C75.1294 33.7354 75.0139 34.6283 75.1293 35.4652C75.2728 36.289 75.5965 37.0033 76.1005 37.608C76.6045 38.2127 77.2587 38.6619 78.0633 38.9555ZM81.0711 44.2611L82.3134 40.8573L84.2131 35.9402L85.6993 30.9072L89.2341 21.2219L94.0613 22.9836L85.6817 45.9438L81.0711 44.2611Z" fill="white"/>
<path d="M100.94 40.067C99.818 40.4966 98.687 40.7806 97.5469 40.919C96.4167 41.0349 95.4731 41.0048 94.7158 40.8287L94.9379 37.6116C95.6827 37.7552 96.5082 37.7932 97.4146 37.7258C98.3309 37.6359 99.1874 37.4383 99.9841 37.1332C100.862 36.797 101.439 36.4547 101.716 36.1064C102.009 35.7518 102.084 35.3875 101.941 35.0136C101.822 34.7047 101.589 34.5331 101.24 34.4989C100.902 34.4421 100.481 34.4634 99.9784 34.5627C99.4757 34.662 98.9243 34.7799 98.3242 34.9166C97.7402 35.047 97.1389 35.1561 96.52 35.244C95.8949 35.3156 95.2937 35.3035 94.7164 35.2076C94.139 35.1118 93.6137 34.8842 93.1405 34.5248C92.6836 34.1591 92.3119 33.6024 92.0254 32.8545C91.7079 32.0253 91.6634 31.2034 91.8921 30.3888C92.137 29.5679 92.6462 28.8043 93.4197 28.0979C94.187 27.3753 95.2047 26.7711 96.4728 26.2854C97.367 25.943 98.3149 25.6918 99.3163 25.532C100.318 25.3722 101.199 25.361 101.96 25.4983L101.729 28.691C100.951 28.5599 100.213 28.5538 99.5124 28.6728C98.8223 28.7693 98.1765 28.9328 97.5749 29.1632C96.7295 29.487 96.1552 29.8374 95.8522 30.2144C95.5492 30.5915 95.4662 30.9589 95.6032 31.3165C95.7277 31.6417 95.9593 31.8327 96.2979 31.8894C96.6529 31.9399 97.0847 31.9236 97.5936 31.8406C98.1024 31.7576 98.6488 31.6509 99.2327 31.5205C99.8267 31.3676 100.436 31.2553 101.061 31.1837C101.686 31.1121 102.279 31.1273 102.841 31.2294C103.412 31.309 103.934 31.5284 104.407 31.8879C104.874 32.231 105.251 32.7765 105.537 33.5244C105.848 34.3373 105.882 35.1542 105.637 35.9751C105.386 36.7797 104.865 37.5383 104.075 38.2509C103.302 38.9573 102.257 39.5627 100.94 40.067Z" fill="white"/>
</svg>
