<svg xmlns="http://www.w3.org/2000/svg" viewBox="0 0 100 100">
  <rect width="100" height="100" fill="#F97316"/>
  <ellipse cx="50" cy="108" rx="38" ry="24" fill="#9A3412"/>
  <rect x="44" y="66" width="12" height="11" rx="2" fill="#FDDBB4"/>
  <circle cx="50" cy="56" r="21" fill="#FDDBB4"/>
  <path d="M 29 50 Q 26 28 50 24 Q 74 28 71 50 Q 68 34 50 30 Q 32 34 29 50 Z" fill="#C0392B"/>
  <path d="M 27 48 Q 25 36 30 30 Q 24 38 26 52 Z" fill="#C0392B"/>
  <path d="M 73 48 Q 75 36 70 30 Q 76 38 74 52 Z" fill="#C0392B"/>
  <circle cx="43" cy="54" r="2.5" fill="#2d1a0e"/>
  <circle cx="57" cy="54" r="2.5" fill="#2d1a0e"/>
  <path d="M 44 63 Q 50 68 56 63" stroke="#d4a070" stroke-width="1.5" fill="none" stroke-linecap="round"/>
</svg>
